<svg width="44" height="44" viewBox="0 0 44 44" fill="none" xmlns="http://www.w3.org/2000/svg">
<path d="M17.7404 13.6243C17.5936 13.7708 17.4771 13.9448 17.3977 14.1363C17.3182 14.3279 17.2773 14.5332 17.2773 14.7406C17.2773 14.9479 17.3182 15.1533 17.3977 15.3448C17.4771 15.5363 17.5936 15.7103 17.7404 15.8568L23.8837 22.0001L17.7404 28.1435C17.4443 28.4395 17.278 28.841 17.278 29.2597C17.278 29.6784 17.4443 30.0799 17.7404 30.376C18.0364 30.672 18.438 30.8383 18.8566 30.8383C19.2753 30.8383 19.6768 30.672 19.9729 30.376L27.2404 23.1085C27.3872 22.962 27.5036 22.788 27.5831 22.5965C27.6625 22.4049 27.7034 22.1996 27.7034 21.9922C27.7034 21.7849 27.6625 21.5795 27.5831 21.388C27.5036 21.1964 27.3872 21.0225 27.2404 20.876L19.9729 13.6085C19.3712 13.0068 18.3579 13.0068 17.7404 13.6243Z" fill="#652280"/>
</svg>
